<?xml version="1.0" encoding="UTF-8" standalone="no"?>
<!-- Created with Inkscape (http://www.inkscape.org/) -->

<svg
   xmlns:dc="http://purl.org/dc/elements/1.1/"
   xmlns:cc="http://creativecommons.org/ns#"
   xmlns:rdf="http://www.w3.org/1999/02/22-rdf-syntax-ns#"
   xmlns:svg="http://www.w3.org/2000/svg"
   xmlns="http://www.w3.org/2000/svg"
   xmlns:sodipodi="http://sodipodi.sourceforge.net/DTD/sodipodi-0.dtd"
   xmlns:inkscape="http://www.inkscape.org/namespaces/inkscape"
   width="42mm"
   height="42mm"
   viewBox="0 0 42 42"
   version="1.1"
   id="svg21"
   inkscape:version="0.92.5 (2060ec1f9f, 2020-04-08)"
   sodipodi:docname="ic_branch_connection_rep.svg">
  <defs
     id="defs15" />
  <sodipodi:namedview
     id="base"
     pagecolor="#ffffff"
     bordercolor="#666666"
     borderopacity="1.0"
     inkscape:pageopacity="0.0"
     inkscape:pageshadow="2"
     inkscape:zoom="3.959798"
     inkscape:cx="71.43991"
     inkscape:cy="62.834724"
     inkscape:document-units="mm"
     inkscape:current-layer="svg21"
     showgrid="false"
     inkscape:window-width="1366"
     inkscape:window-height="742"
     inkscape:window-x="0"
     inkscape:window-y="0"
     inkscape:window-maximized="1"
     showborder="false"
     showguides="true"
     inkscape:guide-bbox="true"
     inkscape:snap-global="true"
     inkscape:snap-bbox="true"
     inkscape:snap-bbox-midpoints="true"
     inkscape:snap-nodes="true"
     inkscape:snap-others="false"
     fit-margin-top="0"
     fit-margin-left="0"
     fit-margin-right="0"
     fit-margin-bottom="0">
    <sodipodi:guide
       position="0,0"
       orientation="1,0"
       id="guide42"
       inkscape:locked="false"
       inkscape:label=""
       inkscape:color="rgb(0,0,255)" />
    <sodipodi:guide
       position="0,0"
       orientation="0,1"
       id="guide44"
       inkscape:locked="false"
       inkscape:label=""
       inkscape:color="rgb(0,0,255)" />
    <sodipodi:guide
       position="42,0"
       orientation="1,0"
       id="guide46"
       inkscape:locked="false"
       inkscape:label=""
       inkscape:color="rgb(0,0,255)" />
    <sodipodi:guide
       position="0,42"
       orientation="0,1"
       id="guide48"
       inkscape:locked="false"
       inkscape:label=""
       inkscape:color="rgb(0,0,255)" />
    <sodipodi:guide
       position="0,21"
       orientation="0,1"
       id="guide152"
       inkscape:locked="false"
       inkscape:label=""
       inkscape:color="rgb(0,0,255)" />
    <sodipodi:guide
       position="21,0"
       orientation="1,0"
       id="guide154"
       inkscape:locked="false"
       inkscape:label=""
       inkscape:color="rgb(0,0,255)" />
  </sodipodi:namedview>
  <metadata
     id="metadata18">
    <rdf:RDF>
      <cc:Work
         rdf:about="">
        <dc:format>image/svg+xml</dc:format>
        <dc:type
           rdf:resource="http://purl.org/dc/dcmitype/StillImage" />
        <dc:title></dc:title>
      </cc:Work>
    </rdf:RDF>
  </metadata>
  <path
     style="fill:none;fill-opacity:1;stroke:none;stroke-width:0.26458332;stroke-opacity:1"
     d="M 1.1020242e-7,0 H 42 c 0,0 0,0 0,0 v 42 c 0,0 0,0 0,0 H 1.1020242e-7 C 4.915028e-8,42 0,42 0,42 V 0 c 0,0 4.915028e-8,0 1.1020242e-7,0 z"
     id="rect156"
     inkscape:connector-curvature="0" />
  <path
     id="path89"
     style="fill:#000000;stroke-width:0.11769231"
     d="m 17.00204,28.39006 c -1.637691,-0.22151 -3.238222,-1.08947 -4.450809,-2.41365 -0.747482,-0.96561 -1.411819,-1.96302 -1.694707,-3.11442 -1.9922658,0 -3.9845317,0 -5.9767975,0 0,-1.25538 0,-2.51077 0,-3.76615 1.9883505,0 3.976701,0 5.9650515,0 0.369375,-1.34193 1.206058,-2.57431 1.978671,-3.36931 1.035758,-1.05179 2.074346,-1.66622 3.388028,-2.00435 0.938997,-0.2417 2.619092,-0.23807 3.66069,0.008 2.905768,1.21982 4.499017,2.78443 5.425076,5.36547 1.981856,0 3.963711,0 5.945567,0 v 3.76615 c -1.988349,0 -3.976698,0 -5.965047,0 -0.633849,1.86053 -2.079468,3.80698 -3.642585,4.67791 -1.44779,0.76628 -3.062687,1.0626 -4.633135,0.85018 z m 2.684706,-4.00554 c 2.871248,-1.43479 2.847833,-5.40746 -0.04025,-6.82927 -2.218866,-0.91327 -4.277325,0.28422 -5.065122,1.93511 -0.591425,1.40241 -0.149753,3.08958 0.740625,4.09161 0.724946,0.80243 1.541492,1.13763 2.808748,1.15297 0.707586,0.009 0.944183,-0.0447 1.556004,-0.35042 z m 11.400622,-9.3787 c 2.06065,2.02958 4.280275,4.22124 6.032905,5.9519 -2.010972,2.01205 -4.021939,4.02411 -6.032905,6.03617 z"
     inkscape:connector-curvature="0"
     sodipodi:nodetypes="ccccccccccccccccccccccccccc" />
</svg>
