<?xml version="1.0" encoding="UTF-8" standalone="no"?>
<!-- Created with Inkscape (http://www.inkscape.org/) -->

<svg
   xmlns:dc="http://purl.org/dc/elements/1.1/"
   xmlns:cc="http://creativecommons.org/ns#"
   xmlns:rdf="http://www.w3.org/1999/02/22-rdf-syntax-ns#"
   xmlns:svg="http://www.w3.org/2000/svg"
   xmlns="http://www.w3.org/2000/svg"
   xmlns:sodipodi="http://sodipodi.sourceforge.net/DTD/sodipodi-0.dtd"
   xmlns:inkscape="http://www.inkscape.org/namespaces/inkscape"
   width="60mm"
   height="60mm"
   viewBox="0 0 60 60"
   version="1.1"
   id="svg8"
   inkscape:version="0.92.5 (2060ec1f9f, 2020-04-08)"
   sodipodi:docname="ic_commit.svg">
  <defs
     id="defs2" />
  <sodipodi:namedview
     id="base"
     pagecolor="#ffffff"
     bordercolor="#666666"
     borderopacity="1.0"
     inkscape:pageopacity="0.0"
     inkscape:pageshadow="2"
     inkscape:zoom="0.45254834"
     inkscape:cx="92.818021"
     inkscape:cy="-35.130498"
     inkscape:document-units="mm"
     inkscape:current-layer="svg8"
     showgrid="false"
     inkscape:window-width="1366"
     inkscape:window-height="742"
     inkscape:window-x="0"
     inkscape:window-y="0"
     inkscape:window-maximized="1"
     showborder="false"
     showguides="true"
     inkscape:guide-bbox="true"
     inkscape:snap-global="true"
     inkscape:snap-bbox="true"
     inkscape:snap-bbox-midpoints="true"
     fit-margin-top="0"
     fit-margin-left="0"
     fit-margin-right="0"
     fit-margin-bottom="0"
     inkscape:snap-nodes="false">
    <sodipodi:guide
       position="0,0"
       orientation="0,1"
       id="guide98"
       inkscape:locked="false"
       inkscape:label=""
       inkscape:color="rgb(0,0,255)" />
    <sodipodi:guide
       position="0,0"
       orientation="1,0"
       id="guide100"
       inkscape:locked="false"
       inkscape:label=""
       inkscape:color="rgb(0,0,255)" />
    <sodipodi:guide
       position="0,60"
       orientation="0,1"
       id="guide102"
       inkscape:locked="false"
       inkscape:label=""
       inkscape:color="rgb(0,0,255)" />
    <sodipodi:guide
       position="60,0"
       orientation="1,0"
       id="guide104"
       inkscape:locked="false"
       inkscape:label=""
       inkscape:color="rgb(0,0,255)" />
    <sodipodi:guide
       position="0,30"
       orientation="0,1"
       id="guide106"
       inkscape:locked="false"
       inkscape:label=""
       inkscape:color="rgb(0,0,255)" />
    <sodipodi:guide
       position="30,0"
       orientation="1,0"
       id="guide108"
       inkscape:locked="false"
       inkscape:label=""
       inkscape:color="rgb(0,0,255)" />
  </sodipodi:namedview>
  <metadata
     id="metadata5">
    <rdf:RDF>
      <cc:Work
         rdf:about="">
        <dc:format>image/svg+xml</dc:format>
        <dc:type
           rdf:resource="http://purl.org/dc/dcmitype/StillImage" />
        <dc:title />
      </cc:Work>
    </rdf:RDF>
  </metadata>
  <path
     style="fill:none;fill-opacity:1;stroke:none;stroke-width:0.26458332;stroke-opacity:1"
     d="M 1.5743196e-7,0 H 60 c 0,0 0,7.0214671e-8 0,1.57432e-7 V 60 c 0,0 0,0 0,0 H 1.5743196e-7 C 7.0214652e-8,60 0,60 0,60 V 1.57432e-7 C 0,7.0214671e-8 7.0214652e-8,0 1.5743196e-7,0 Z"
     id="rect110" />
  <path
     style="fill:#000000;stroke-width:0.22732316"
     d="m 17.158712,49.630959 c -3.538087,-1.86523 -3.461964,-6.76183 0.130303,-8.38172 l 0.892647,-0.40252 v -10.84247 -10.84246 l -0.892647,-0.40254 c -4.496111,-2.02746 -3.111251,-8.7594398 1.801945,-8.7594398 4.913188,0 6.298047,6.7319798 1.801937,8.7594398 l -0.892647,0.40254 v 3.4778 c 0,1.91278 0.113041,4.01987 0.251214,4.68242 0.431091,2.06722 1.438137,3.87756 2.920359,5.24984 2.519966,2.33303 4.418121,2.8835 9.95329,2.88644 l 3.236304,0.002 0.354881,-0.84936 c 1.558508,-3.73002 6.834936,-3.73461 8.392309,-0.007 1.221583,2.92356 -0.987894,6.31231 -4.115709,6.31231 -1.983507,0 -3.534118,-1.0108 -4.2766,-2.78781 l -0.354881,-0.84936 -4.259262,-0.005 c -3.903683,-0.004 -4.387853,-0.0501 -5.799631,-0.54843 -2.04962,-0.72335 -3.524462,-1.70076 -5.045723,-3.3439 l -1.256551,-1.35723 v 4.41124 4.41123 l 0.892647,0.40252 c 3.356742,1.51369 3.698341,5.96076 0.616088,8.02065 -0.928243,0.62036 -1.310911,0.73735 -2.386888,0.7297 -0.712127,-0.005 -1.584394,-0.16882 -1.963385,-0.36862 z m 3.461948,-2.03836 c 0.763186,-0.47603 1.262668,-1.60166 1.09866,-2.47592 -0.451746,-2.40797 -3.47834,-3.05981 -4.836454,-1.04161 -0.658472,0.9785 -0.658601,1.79543 -4.3e-4,2.7743 0.837652,1.24583 2.426128,1.56166 3.738224,0.74323 z m 21.823021,-9.09292 c 0.763188,-0.47604 1.262668,-1.60166 1.098661,-2.47592 -0.451745,-2.40799 -3.478332,-3.05982 -4.836454,-1.04161 -0.658471,0.9785 -0.6586,1.79543 -4.55e-4,2.7743 0.837659,1.24583 2.426126,1.56166 3.738232,0.74323 z M 20.62066,16.676649 c 0.763186,-0.47602 1.262668,-1.60166 1.09866,-2.47592 -0.451746,-2.40798 -3.47834,-3.05981 -4.836454,-1.04161 -0.658472,0.97851 -0.658601,1.79543 -4.3e-4,2.77431 0.837652,1.24583 2.426128,1.56164 3.738224,0.74322 z"
     id="path52"
     inkscape:connector-curvature="0" />
</svg>
