<svg
        xmlns="http://www.w3.org/2000/svg"
        width="21.166668mm"
        height="23.812511mm"
        viewBox="0 0 21.166668 23.812511"
        version="1.1"
        id="svg8">
    <g
            id="layer1"
            transform="translate(0,-294.35416)">
        <path
                style="fill:none;fill-rule:evenodd;stroke-width:0.26458332"
                d="M 1.0985148e-5,294.35465 H 21.166657 c 6e-6,0 1.1e-5,1e-5 1.1e-5,2e-5 v 23.81249 c 0,0 -5e-6,10e-6 -1.1e-5,10e-6 H 1.0985148e-5 C 4.899376e-6,318.16717 0,318.16716 0,318.16716 v -23.81249 c 0,-10e-6 4.899376e-6,-2e-5 1.0985148e-5,-2e-5 z"
                id="rect344"
        />
        <path
                id="text68"
                style="font-style:normal;font-weight:normal;font-size:15.39940929px;line-height:1.25;font-family:sans-serif;letter-spacing:0px;word-spacing:0px;fill:#000000;fill-opacity:1;stroke:none;stroke-width:0.38498521"
                d="m 7.6868691,300.32016 -4.9790241,9.98852 6.3577514,2.99466 0.5674072,-1.13739 -4.9759237,-2.34355 4.4121339,-8.85113 z"
        />
        <path
                id="text72"
                style="font-style:normal;font-weight:normal;font-size:14.36834145px;line-height:1.25;font-family:sans-serif;letter-spacing:0px;word-spacing:0px;fill:#000000;fill-opacity:1;stroke:none;stroke-width:0.35920852"
                d="m 16.999855,298.15501 v 4.25196 c -0.271277,-0.46773 -0.615191,-0.8142 -1.031461,-1.0387 -0.411594,-0.22918 -0.907276,-0.34367 -1.487248,-0.34367 -0.949471,0 -1.723658,0.37918 -2.322339,1.13689 -0.594004,0.75771 -0.890902,1.75369 -0.890902,2.98844 0,1.23479 0.296898,2.23126 0.890902,2.98897 0.598681,0.75772 1.372868,1.13636 2.322339,1.13636 0.579972,0 1.075654,-0.11242 1.487248,-0.33692 0.41627,-0.22918 0.760184,-0.57719 1.031461,-1.04489 v 1.17822 h 1.290877 v -10.91666 z m -2.202966,3.95015 c 0.68287,0 1.220971,0.27136 1.613855,0.81391 0.392884,0.53787 0.589111,1.28141 0.589111,2.23086 0,0.94949 -0.196227,1.69556 -0.589111,2.23811 -0.392884,0.53788 -0.930985,0.80669 -1.613855,0.80669 -0.682871,0 -1.220971,-0.26881 -1.613855,-0.80669 -0.388207,-0.54255 -0.581877,-1.28862 -0.581877,-2.23811 0,-0.94945 0.19367,-1.69299 0.581877,-2.23086 0.392884,-0.54255 0.930984,-0.81391 1.613855,-0.81391 z"
        />
        <path
                id="text76"
                style="font-style:normal;font-weight:normal;font-size:13.45306206px;line-height:1.25;font-family:sans-serif;letter-spacing:0px;word-spacing:0px;fill:#000000;fill-opacity:1;stroke:none;stroke-width:0.33632654"
                d="m 11.812715,304.55556 c -1.05e-4,0 -3.96e-4,0.003 -5.29e-4,0.003 h 5.29e-4 z m -5.29e-4,0.003 h -0.520898 v 8.53183 0.9787 h 3.630786 c 1.133471,0 2.00739,-0.23162 2.621545,-0.69453 0.614156,-0.46289 0.920874,-1.11903 0.920874,-1.96837 0,-0.64553 -0.187424,-1.18232 -0.562239,-1.61126 -0.65257,-0.70948 -1.759665,-0.62164 -2.15917,-1.37194 -0.488821,0.0114 -0.823312,0.0507 -1.058333,0.0517 h -2.025199 v -2.10788 c -0.0015,-6e-5 -0.0037,8e-5 -0.0052,0 -0.802695,-0.40968 -0.815356,-1.14065 -0.84236,-1.81034 z m 0.847494,4.96972 h 2.194698 c 0.736083,0 1.280222,0.1423 1.632458,0.42683 0.356752,0.2803 0.534851,0.71752 0.534851,1.31207 0,0.59028 -0.178099,1.02999 -0.534851,1.31879 -0.352236,0.28453 -0.896375,0.42685 -1.632458,0.42685 H 12.65968 Z"/>
        <path
                style="fill:#000000;fill-opacity:1;stroke:none;stroke-width:0.20637795;stroke-opacity:1"
                d="m 12.572456,299.78146 a 0.82919717,0.82919717 0 0 1 -0.829198,0.82919 0.82919717,0.82919717 0 0 1 -0.829197,-0.82919 0.82919717,0.82919717 0 0 1 0.829197,-0.8292 0.82919717,0.82919717 0 0 1 0.829198,0.8292 z"
                id="path78"
        />
    </g>
</svg>